HIERARCHY
ROOT Root
{
  OFFSET 0.0 0.0 0.0
  CHANNELS 6 Xposition Yposition Zposition Zrotation Yrotation Xrotation
  JOINT Hips
  {
    OFFSET 0.0 100.0 0.0
    CHANNELS 6 Xposition Yposition Zposition Zrotation Yrotation Xrotation
    JOINT Spine1
    {
      OFFSET 5.003913 -0.037094 -0.013727
      CHANNELS 3 Zrotation Yrotation Xrotation
      JOINT Spine2
      {
        OFFSET 7.125363 -1e-06 0.0
        CHANNELS 3 Zrotation Yrotation Xrotation
        JOINT Chest
        {
          OFFSET 7.594027 1e-06 0.0
          CHANNELS 3 Zrotation Yrotation Xrotation
          JOINT Neck1
          {
            OFFSET 26.313086 -0.460272 -0.181672
            CHANNELS 3 Zrotation Yrotation Xrotation
            JOINT Neck2
            {
              OFFSET 8.045911 0.0 0.0
              CHANNELS 3 Zrotation Yrotation Xrotation
              JOINT Head
              {
                OFFSET 6.432774 0.0 0.0
                CHANNELS 3 Zrotation Yrotation Xrotation
                JOINT HeadEnd
                {
                  OFFSET 16.169773 0.06451 0.00362
                  CHANNELS 3 Zrotation Yrotation Xrotation
                }
                JOINT Jaw
                {
                  OFFSET 0.108741 3.12938 0.002639
                  CHANNELS 3 Zrotation Yrotation Xrotation
                }
                JOINT LeftEye
                {
                  OFFSET 4.45173 8.166359 3.206392
                  CHANNELS 3 Zrotation Yrotation Xrotation
                }
                JOINT RightEye
                {
                  OFFSET 4.436895 8.135758 -3.222429
                  CHANNELS 3 Zrotation Yrotation Xrotation
                }
              }
            }
          }
          JOINT LeftShoulder
          {
            OFFSET 23.218927 5.195579 1.621656
            CHANNELS 3 Zrotation Yrotation Xrotation
            JOINT LeftArm
            {
              OFFSET 15.902118 2e-06 -2e-06
              CHANNELS 3 Zrotation Yrotation Xrotation
              JOINT LeftForeArm
              {
                OFFSET 28.739307 0.0 -1e-06
                CHANNELS 3 Zrotation Yrotation Xrotation
                JOINT LeftHand
                {
                  OFFSET 27.093981 -4e-06 0.0
                  CHANNELS 3 Zrotation Yrotation Xrotation
                  JOINT LeftHandThumb1
                  {
                    OFFSET 2.276781 3.380274 0.83384
                    CHANNELS 3 Zrotation Yrotation Xrotation
                    JOINT LeftHandThumb2
                    {
                      OFFSET 4.705309 -1e-06 -1e-06
                      CHANNELS 3 Zrotation Yrotation Xrotation
                      JOINT LeftHandThumb3
                      {
                        OFFSET 2.798515 0.0 3e-06
                        CHANNELS 3 Zrotation Yrotation Xrotation
                        JOINT LeftHandThumbEnd
                        {
                          OFFSET 3.180793 4e-06 -4e-06
                          CHANNELS 3 Zrotation Yrotation Xrotation
                        }
                      }
                    }
                  }
                  JOINT LeftHandIndex1
                  {
                    OFFSET 3.247786 2.352677 0.137192
                    CHANNELS 3 Zrotation Yrotation Xrotation
                    JOINT LeftHandIndex2
                    {
                      OFFSET 6.367095 1e-06 0.0
                      CHANNELS 3 Zrotation Yrotation Xrotation
                      JOINT LeftHandIndex3
                      {
                        OFFSET 3.662364 0.0 0.0
                        CHANNELS 3 Zrotation Yrotation Xrotation
                        JOINT LeftHandIndex4
                        {
                          OFFSET 2.329242 4e-06 -4e-06
                          CHANNELS 3 Zrotation Yrotation Xrotation
                          JOINT LeftHandIndexEnd
                          {
                            OFFSET 2.767823 1e-06 0.0
                            CHANNELS 3 Zrotation Yrotation Xrotation
                          }
                        }
                      }
                    }
                  }
                  JOINT LeftHandMiddle1
                  {
                    OFFSET 3.163612 0.945023 -0.406112
                    CHANNELS 3 Zrotation Yrotation Xrotation
                    JOINT LeftHandMiddle2
                    {
                      OFFSET 6.276789 3e-06 0.0
                      CHANNELS 3 Zrotation Yrotation Xrotation
                      JOINT LeftHandMiddle3
                      {
                        OFFSET 4.35652 -1e-06 4e-06
                        CHANNELS 3 Zrotation Yrotation Xrotation
                        JOINT LeftHandMiddle4
                        {
                          OFFSET 2.996877 0.0 8e-06
                          CHANNELS 3 Zrotation Yrotation Xrotation
                          JOINT LeftHandMiddleEnd
                          {
                            OFFSET 2.323256 3e-06 -4e-06
                            CHANNELS 3 Zrotation Yrotation Xrotation
                          }
                        }
                      }
                    }
                  }
                  JOINT LeftHandRing1
                  {
                    OFFSET 2.882606 -0.309162 0.107445
                    CHANNELS 3 Zrotation Yrotation Xrotation
                    JOINT LeftHandRing2
                    {
                      OFFSET 6.033198 0.0 4e-06
                      CHANNELS 3 Zrotation Yrotation Xrotation
                      JOINT LeftHandRing3
                      {
                        OFFSET 4.350578 3e-06 0.0
                        CHANNELS 3 Zrotation Yrotation Xrotation
                        JOINT LeftHandRing4
                        {
                          OFFSET 2.651321 2e-06 -7e-06
                          CHANNELS 3 Zrotation Yrotation Xrotation
                          JOINT LeftHandRingEnd
                          {
                            OFFSET 1.937663 1e-06 -4e-06
                            CHANNELS 3 Zrotation Yrotation Xrotation
                          }
                        }
                      }
                    }
                  }
                  JOINT LeftHandPinky1
                  {
                    OFFSET 2.865315 -1.525436 0.575687
                    CHANNELS 3 Zrotation Yrotation Xrotation
                    JOINT LeftHandPinky2
                    {
                      OFFSET 5.54936 1e-06 -8e-06
                      CHANNELS 3 Zrotation Yrotation Xrotation
                      JOINT LeftHandPinky3
                      {
                        OFFSET 3.070974 0.0 -4e-06
                        CHANNELS 3 Zrotation Yrotation Xrotation
                        JOINT LeftHandPinky4
                        {
                          OFFSET 1.549672 1e-06 0.0
                          CHANNELS 3 Zrotation Yrotation Xrotation
                          JOINT LeftHandPinkyEnd
                          {
                            OFFSET 1.952123 0.0 0.0
                            CHANNELS 3 Zrotation Yrotation Xrotation
                          }
                        }
                      }
                    }
                  }
                }
              }
            }
          }
          JOINT RightShoulder
          {
            OFFSET 23.161716 5.296122 -1.380114
            CHANNELS 3 Zrotation Yrotation Xrotation
            JOINT RightArm
            {
              OFFSET -16.027195 -2e-06 1.1e-05
              CHANNELS 3 Zrotation Yrotation Xrotation
              JOINT RightForeArm
              {
                OFFSET -28.736639 4e-06 2e-06
                CHANNELS 3 Zrotation Yrotation Xrotation
                JOINT RightHand
                {
                  OFFSET -27.133619 6e-06 0.0
                  CHANNELS 3 Zrotation Yrotation Xrotation
                  JOINT RightHandThumb1
                  {
                    OFFSET -2.274328 -3.351035 -0.83067
                    CHANNELS 3 Zrotation Yrotation Xrotation
                    JOINT RightHandThumb2
                    {
                      OFFSET -4.703594 -3e-06 2e-06
                      CHANNELS 3 Zrotation Yrotation Xrotation
                      JOINT RightHandThumb3
                      {
                        OFFSET -2.794935 -4e-06 -3e-06
                        CHANNELS 3 Zrotation Yrotation Xrotation
                        JOINT RightHandThumbEnd
                        {
                          OFFSET -3.183852 4e-06 1e-06
                          CHANNELS 3 Zrotation Yrotation Xrotation
                        }
                      }
                    }
                  }
                  JOINT RightHandIndex1
                  {
                    OFFSET -3.253496 -2.33755 -0.127667
                    CHANNELS 3 Zrotation Yrotation Xrotation
                    JOINT RightHandIndex2
                    {
                      OFFSET -6.344434 0.0 0.0
                      CHANNELS 3 Zrotation Yrotation Xrotation
                      JOINT RightHandIndex3
                      {
                        OFFSET -3.654871 0.0 -8e-06
                        CHANNELS 3 Zrotation Yrotation Xrotation
                        JOINT RightHandIndex4
                        {
                          OFFSET -2.327586 -1e-06 0.0
                          CHANNELS 3 Zrotation Yrotation Xrotation
                          JOINT RightHandIndexEnd
                          {
                            OFFSET -2.770001 3e-06 8e-06
                            CHANNELS 3 Zrotation Yrotation Xrotation
                          }
                        }
                      }
                    }
                  }
                  JOINT RightHandMiddle1
                  {
                    OFFSET -3.168223 -0.944764 0.411762
                    CHANNELS 3 Zrotation Yrotation Xrotation
                    JOINT RightHandMiddle2
                    {
                      OFFSET -6.266691 -1e-06 -4e-06
                      CHANNELS 3 Zrotation Yrotation Xrotation
                      JOINT RightHandMiddle3
                      {
                        OFFSET -4.348901 0.0 0.0
                        CHANNELS 3 Zrotation Yrotation Xrotation
                        JOINT RightHandMiddle4
                        {
                          OFFSET -3.00024 2e-06 -4e-06
                          CHANNELS 3 Zrotation Yrotation Xrotation
                          JOINT RightHandMiddleEnd
                          {
                            OFFSET -2.321477 -4e-06 -4e-06
                            CHANNELS 3 Zrotation Yrotation Xrotation
                          }
                        }
                      }
                    }
                  }
                  JOINT RightHandRing1
                  {
                    OFFSET -2.885654 0.293261 -0.119232
                    CHANNELS 3 Zrotation Yrotation Xrotation
                    JOINT RightHandRing2
                    {
                      OFFSET -6.032835 -1e-06 -4e-06
                      CHANNELS 3 Zrotation Yrotation Xrotation
                      JOINT RightHandRing3
                      {
                        OFFSET -4.33881 0.0 -4e-06
                        CHANNELS 3 Zrotation Yrotation Xrotation
                        JOINT RightHandRing4
                        {
                          OFFSET -2.654903 -4e-06 -4e-06
                          CHANNELS 3 Zrotation Yrotation Xrotation
                          JOINT RightHandRingEnd
                          {
                            OFFSET -1.935122 0.0 4e-06
                            CHANNELS 3 Zrotation Yrotation Xrotation
                          }
                        }
                      }
                    }
                  }
                  JOINT RightHandPinky1
                  {
                    OFFSET -2.866241 1.503904 -0.60527
                    CHANNELS 3 Zrotation Yrotation Xrotation
                    JOINT RightHandPinky2
                    {
                      OFFSET -5.553177 -2e-06 0.0
                      CHANNELS 3 Zrotation Yrotation Xrotation
                      JOINT RightHandPinky3
                      {
                        OFFSET -3.062664 -1e-06 -4e-06
                        CHANNELS 3 Zrotation Yrotation Xrotation
                        JOINT RightHandPinky4
                        {
                          OFFSET -1.546529 2e-06 4e-06
                          CHANNELS 3 Zrotation Yrotation Xrotation
                          JOINT RightHandPinkyEnd
                          {
                            OFFSET -1.952341 0.0 -4e-06
                            CHANNELS 3 Zrotation Yrotation Xrotation
                          }
                        }
                      }
                    }
                  }
                }
              }
            }
          }
        }
      }
    }
    JOINT LeftLeg
    {
      OFFSET -8.443107 2.567604 10.043214
      CHANNELS 3 Zrotation Yrotation Xrotation
      JOINT LeftShin
      {
        OFFSET 43.229198 1e-06 -1e-06
        CHANNELS 3 Zrotation Yrotation Xrotation
        JOINT LeftFoot
        {
          OFFSET 42.298611 1e-06 1e-06
          CHANNELS 3 Zrotation Yrotation Xrotation
          JOINT LeftToeBase
          {
            OFFSET 14.165858 1e-06 0.0
            CHANNELS 3 Zrotation Yrotation Xrotation
            JOINT LeftToeEnd
            {
              OFFSET 6.7141 -0.234461 0.0
              CHANNELS 3 Zrotation Yrotation Xrotation
            }
          }
        }
      }
    }
    JOINT RightLeg
    {
      OFFSET -8.303923 2.592729 -10.047278
      CHANNELS 3 Zrotation Yrotation Xrotation
      JOINT RightShin
      {
        OFFSET -43.369682 0.0 1e-06
        CHANNELS 3 Zrotation Yrotation Xrotation
        JOINT RightFoot
        {
          OFFSET -42.260784 4e-06 2e-06
          CHANNELS 3 Zrotation Yrotation Xrotation
          JOINT RightToeBase
          {
            OFFSET -14.222245 -2e-06 -1e-06
            CHANNELS 3 Zrotation Yrotation Xrotation
            JOINT RightToeEnd
            {
              OFFSET -6.660062 0.232574 -2e-06
              CHANNELS 3 Zrotation Yrotation Xrotation
            }
          }
        }
      }
    }
  }
}
MOTION
Frames: 4
Frame Time: 0.03333333333333333
0.0 0.0 0.0 0.0 -0.0 0.0 -53.309948 97.030624 523.691528 85.531967 4.582346 93.456001 -0.284223 0.442667 0.023026 -10.618768 -0.424486 -1.797808 16.59343 3.916753 -2.393384 22.646738 2.751599 0.591982 -2.680693 0.062055 -0.941269 -33.91029 -3.467703 0.946124 0.000352 6e-05 -4e-06 0.065925 0.001432 -0.084122 -0.020203 0.081854 -0.109666 -0.024115 -0.094198 -0.048184 -117.942467 -75.808929 133.954361 30.723656 -64.49173 -3.704761 28.584967 0.28386 0.003678 0.635282 8.692543 3.933756 17.609636 -26.242424 52.272934 -19.436218 -14.373208 29.348761 -0.004467 -8.754225 0.001109 15.386239 -18.25802 5.994258 -0.620517 -1.804012 -3.882062 -4.779058 -11.026863 -2.937564 -0.003405 -20.942455 -0.009387 -5.017362 -25.001316 -4.010103 0.000273 0.000347 -0.004289 -10.603409 -5.670993 -3.547726 10.55768 -17.902426 -3.133137 0.010929 -13.807073 0.011562 -0.475527 -31.119404 -4.025151 -9.106569 -58.154137 4.923906 -13.949294 -7.129377 -2.859419 13.753289 -8.392984 -3.228424 0.353223 -34.145943 0.762377 -0.965936 -17.692308 2.613513 0.001735 0.009361 0.007619 -17.300558 -20.061932 -4.193279 21.725725 -1.639671 3.85106 0.005712 -6.328319 -0.004155 -1.7033 -22.553301 -6.179949 -0.005722 -0.001669 0.003641 57.749531 -71.626862 138.859726 29.361351 -61.849739 -0.132467 30.243849 0.03602 -0.108612 1.630026 11.362946 -10.157557 22.163147 -20.361151 49.896294 -16.662357 -16.733431 28.440615 0.002591 -12.678083 -0.002054 16.181131 -18.044165 3.585207 -0.09697 -1.508496 -4.276503 -5.045542 -5.598308 -2.945032 0.000712 -11.004097 0.004968 -6.099083 -15.860929 -3.829917 -0.0 0.006786 -0.000233 -10.26959 -5.661852 -4.334909 11.018185 -11.279147 -2.3687 -1.388572 -14.201246 -6.304505 -0.627444 -26.837343 -3.819189 -7.2875 -52.741962 -0.119876 -13.690272 -7.343176 -3.714046 18.121761 -14.019764 -3.232276 -0.01178 -18.762331 0.010086 -0.43015 -8.448101 2.560182 -0.008124 0.009132 -0.000122 -15.90238 -20.055273 -5.466394 30.396227 -7.176385 1.739316 0.004753 -8.144346 0.003394 -1.895126 -22.819832 -6.156111 -0.007241 0.009234 -0.000135 177.239395 -13.990207 -9.535907 58.315495 -0.57043 0.556524 -62.649994 -10.865318 -9.711763 -12.035789 1.535676 2.077521 -0.980585 0.000945 0.005086 -15.118974 4.588539 -16.481205 25.791828 -0.153294 -0.132304 -76.245277 -2.420222 -14.534598 -12.031501 1.425104 1.585771 -0.99287 -0.004014 -0.003279 
0.0 0.0 0.0 0.0 -0.0 0.0 -53.549797 97.794487 527.32251 86.094521 4.998887 92.56311 0.009287 0.279189 0.182515 -10.612211 -0.385495 -1.281002 16.738688 3.769493 -2.181268 22.84642 2.156934 0.643278 -2.686556 0.085647 -0.952756 -33.762131 -3.385561 0.833897 0.000871 -0.00096 -0.000282 0.045931 0.000961 -0.05767 -0.051629 0.071811 -0.068171 -0.036738 -0.084966 -0.035047 -118.058197 -75.520981 134.216202 29.060474 -65.692337 -1.70675 27.894743 0.392334 -0.064791 0.899714 9.142188 4.562276 17.634306 -26.390787 52.516312 -19.447515 -14.376412 29.418818 0.000267 -8.761351 -0.011027 15.500774 -18.24201 5.946465 -0.608136 -1.787657 -3.900625 -4.806731 -11.051162 -2.940021 0.003049 -20.990147 0.009918 -5.013612 -25.022648 -4.03502 0.001955 -0.007874 0.007086 -10.623038 -5.684713 -3.572022 10.563614 -17.919325 -3.111744 0.006421 -13.823871 0.007233 -0.497401 -31.155144 -4.014898 -9.237835 -58.211697 4.988852 -13.965239 -7.153598 -2.888042 13.760164 -8.397411 -3.212807 0.325553 -34.214668 0.798429 -0.960963 -17.778952 2.632432 0.002064 -0.00681 -0.004884 -17.337189 -20.105524 -4.212546 21.758589 -1.637462 3.871814 -0.005681 -6.345574 8.6e-05 -1.689279 -22.587315 -6.177958 0.00598 -0.001139 -0.010169 58.793285 -72.915031 137.636993 32.088627 -62.555141 -2.494174 30.097795 0.264589 -0.083904 2.145066 11.773889 -9.766686 22.244753 -20.478418 50.108044 -16.699354 -16.772776 28.538511 -0.000239 -12.701039 0.001304 16.224802 -18.134537 3.703302 -0.097467 -1.514312 -4.286536 -5.051687 -5.619713 -2.960763 0.010941 -11.035851 0.003741 -6.124637 -15.905543 -3.843914 0.003669 0.004586 -0.000233 -10.295761 -5.693103 -4.350657 11.053041 -11.317158 -2.370628 -1.383953 -14.247151 -6.323293 -0.636187 -26.982824 -3.821883 -7.62582 -53.327961 0.242719 -13.715402 -7.377182 -3.734166 18.159918 -14.074097 -3.238254 -0.003189 -18.83552 0.026909 -0.440567 -8.463049 2.568264 -0.000668 -0.012451 -0.003944 -15.930392 -20.127024 -5.49105 30.459383 -7.207099 1.745394 -0.011133 -8.185253 0.004809 -1.847453 -22.878775 -6.153723 -0.006958 0.000589 -0.004489 172.96756 -12.853906 -9.59677 55.624573 -0.159871 0.209098 -64.566635 -12.828523 -9.123201 -12.176729 1.530791 2.004022 -0.998628 0.001611 -0.0033 -11.089398 4.669965 -16.129013 23.664595 -0.1352 -0.009704 -77.601082 -1.641971 -16.112259 -12.261947 1.479417 1.562366 -0.998006 -0.002245 0.004708 
0.0 0.0 0.0 0.0 -0.0 0.0 -53.621845 98.444366 531.241577 86.94487 5.242771 91.377602 0.191934 -0.055282 0.260892 -10.567519 -0.36526 -0.812498 16.786341 3.421426 -1.926091 22.968861 1.581461 0.731423 -2.653411 0.175682 -0.75345 -33.725994 -3.326112 0.912293 0.003397 -9.2e-05 0.00012 0.051678 0.001893 -0.045708 -0.03233 0.045566 -0.047344 -0.017167 -0.055099 -0.030283 -118.112976 -74.772873 134.542267 26.949244 -66.304794 0.282074 27.295776 0.460439 -0.114589 1.447325 9.60253 4.665683 17.636787 -26.320623 52.430725 -19.474655 -14.385605 29.410265 -0.004749 -8.773318 -0.0058 15.594153 -18.221588 5.796809 -0.60213 -1.786633 -3.883123 -4.79354 -11.050475 -2.953744 0.007379 -20.99011 -0.002726 -5.009889 -25.031046 -4.025572 0.005357 -0.00208 -0.005083 -10.621789 -5.667066 -3.559729 10.578235 -17.945812 -3.123437 0.009631 -13.834132 0.005723 -0.471338 -31.176071 -4.015465 -9.213745 -58.048038 4.989261 -13.96067 -7.129989 -2.8677 13.754007 -8.420134 -3.235101 0.395164 -34.242271 0.754139 -0.958583 -17.724453 2.622451 -0.000331 0.000706 0.001649 -17.321041 -20.08906 -4.2078 21.742796 -1.652641 3.860708 -0.003212 -6.337104 0.001503 -1.681222 -22.598015 -6.200994 -0.00224 -0.000844 0.004291 58.765522 -73.569649 136.900345 33.845074 -62.505077 -3.809165 30.049232 0.388608 -0.0149 2.460322 12.171356 -8.727598 22.161213 -20.346655 49.896664 -16.692356 -16.726812 28.45063 -0.002748 -12.677519 0.002173 16.118979 -18.155634 3.6883 -0.107034 -1.516442 -4.272713 -5.034084 -5.60922 -2.951949 0.008445 -11.010179 -0.002291 -6.109987 -15.886631 -3.841733 0.003508 0.01059 0.001476 -10.276912 -5.675517 -4.335016 11.023308 -11.301182 -2.373671 -1.381832 -14.23843 -6.316844 -0.624812 -26.9142 -3.817328 -7.520292 -53.178169 0.152208 -13.690727 -7.357266 -3.717616 18.099228 -14.042999 -3.238768 0.007005 -18.759783 0.002919 -0.43391 -8.427122 2.552821 0.0 -0.002517 -0.009555 -15.895483 -20.079201 -5.474957 30.361731 -7.189836 1.73167 0.004335 -8.154491 0.002857 -1.841249 -22.839291 -6.16975 -0.000543 0.004399 -0.008136 169.784302 -11.102001 -9.549003 50.67371 0.030371 0.002341 -66.33139 -13.609543 -8.936725 -12.352449 1.558111 1.992604 -1.001179 -0.003345 -0.000724 -7.120537 4.223867 -15.376272 21.664976 -0.090838 0.099825 -79.224915 -0.917879 -17.081066 -12.427134 1.456702 1.564467 -0.999374 0.006781 0.011732 
0.0 0.0 0.0 0.0 -0.0 0.0 -53.694145 98.891685 535.01178 87.882881 5.249819 90.237709 0.278445 -0.42983 0.196973 -10.498293 -0.357138 -0.369575 16.730909 3.037195 -1.675786 22.97537 0.95251 0.743063 -2.628915 0.314828 -0.505735 -33.773254 -3.227014 1.047839 0.003419 -0.0 0.000118 0.052052 -0.002488 -0.063353 0.008096 0.015109 -0.056086 0.004721 -0.034387 -0.058676 -119.03479 -74.379425 135.583023 24.668356 -66.81057 2.381712 26.791845 0.501822 -0.098266 2.10816 10.075956 4.548635 17.641872 -26.321938 52.447765 -19.477007 -14.398125 29.42395 -0.002813 -8.772666 0.000466 15.610647 -18.230007 5.733887 -0.606289 -1.797201 -3.894099 -4.810597 -11.051378 -2.932596 -0.001948 -20.979738 -0.007433 -5.02662 -25.032791 -4.038343 -0.000815 0.007746 -0.00189 -10.642556 -5.69528 -3.560147 10.58672 -17.929113 -3.121979 -0.000118 -13.83075 0.002862 -0.496752 -31.228039 -4.042216 -9.058252 -57.840366 4.797286 -13.988272 -7.153203 -2.87608 13.775894 -8.399705 -3.215323 0.353252 -34.17894 0.773338 -0.965004 -17.70244 2.609147 0.005482 -0.009841 0.007154 -17.351307 -20.116491 -4.208287 21.765984 -1.641921 3.874865 0.004017 -6.341352 -0.006729 -1.699603 -22.608776 -6.186218 -0.00785 0.014675 -0.0118 58.99815 -74.311287 136.517838 35.640167 -62.360565 -4.814853 30.015574 0.608975 0.031937 2.55386 12.521189 -7.592855 22.172749 -20.358761 49.963745 -16.721914 -16.741419 28.495008 -0.001615 -12.703671 -0.001226 16.066221 -18.201324 3.65024 -0.106816 -1.508047 -4.270806 -5.045115 -5.615165 -2.950397 0.01074 -11.018061 -0.002975 -6.112899 -15.885808 -3.837424 -0.002859 -0.001276 0.000913 -10.27957 -5.661849 -4.330975 11.024325 -11.307295 -2.382591 -1.389097 -14.23822 -6.320522 -0.619815 -26.906136 -3.82796 -7.262094 -53.134361 -0.152276 -13.714014 -7.351197 -3.712382 18.164391 -14.046782 -3.249383 -0.008298 -18.784243 -0.008332 -0.420745 -8.460334 2.542793 -0.005254 0.001926 -0.001957 -15.921615 -20.091705 -5.467035 30.431433 -7.19698 1.733513 0.003483 -8.173036 -0.000611 -1.875148 -22.889139 -6.180657 0.011249 0.005782 1e-06 167.2202 -9.316386 -9.530688 44.192818 0.089494 -0.084253 -67.843887 -13.6991 -9.193847 -12.616631 1.671166 2.037522 -0.991406 0.007149 -0.000335 -3.70784 3.575363 -14.632851 19.945496 -0.051857 0.190687 -80.665512 -0.369188 -17.142282 -12.409411 1.379576 1.557442 -0.993823 0.000855 -0.004526 
